<svg id="图层_1" data-name="图层 1" xmlns="http://www.w3.org/2000/svg" viewBox="0 0 762.8 413.1"><defs><style>.cls-1{fill:#fff;}.cls-2{fill:#ffc09f;}.cls-3{fill:#4cb4e7;}.cls-4,.cls-6{fill:none;}.cls-4{stroke:#000;stroke-width:14px;}.cls-4,.cls-5,.cls-6{stroke-miterlimit:10;}.cls-5{fill:#fafcfe;stroke:gray;}.cls-6{stroke:#65c8d0;}</style></defs><path class="cls-1" d="M293.4,423.8c-9.5-12.7-2.6-48.2,3.7-62.7s39.2-57.4,114.7-41.7,94.2,87.1,94.5,89.8c2-3.8,20.5-23.8,50.7-44.6,80.4-31.6,128.3,1.8,167.3,43.7,37.7,64.4,18,114.4,7.3,138.4s8.7,96.6,66.9,100.1,60.5-40.7,60.3-48.6c-.7-47-49.2-50-47-50.5,75.8,7.1,77.8,75,78.8,84.1-14.6,84.8-86,76.4-86,76.4s-520.5,5.2-546.4-1.8-10.9,2.3-41.6-22-21.7-60.1-23.3-61.5-10.5,0-31.2-29-13.5-53.7-7.8-81c45.5-102,139.2-84.5,139.2-84.5Z" transform="translate(-137.3 -305.7)"/><path class="cls-2" d="M483.1,622.4c0,.6-.1,1.2-.1,1.8s-.1,1.3,0,.2,0,0-.1.2a16.8,16.8,0,0,1-.9,3.2c-.4,1.2.6-1,.2-.3a2.5,2.5,0,0,1-.4.7,10.9,10.9,0,0,1-.8,1.5,8.3,8.3,0,0,1-.8,1.2c-.3.4-.8.7.3-.3l-.6.8-2.3,2.1c-.4.4-.9.4.4-.2l-.6.4-1.6,1-1.4.7c-.5.3-.9.1.4-.1l-.6.2c-1.2.4-2.5.5-3.6.9h-3l-1.2-.2c-1-.2-2.1-.8-3.1-.9,1.3.2,1,.4.4.1l-.7-.4-1.5-.8-1.3-.9c1.2.6.7.6.3.2l-.6-.5c-.8-.7-1.5-1.6-2.3-2.4,1.1,1,.6.7.3.3l-.5-.7c-.3-.4-.5-.9-.8-1.4l-.6-1.3c-.4-.7.5,1.5.1.3l-.3-.9a14.6,14.6,0,0,1-.5-2c-.1-.2-.1-.4-.2-.6s.2,1.5.1.2a14.8,14.8,0,0,1-.1-2.1c0-.5-.2-1.8.1-2.1v.7c0-.3.1-.5.1-.8l.3-1.2.6-2c.5-1.4-.6,1.1.1-.1l.5-1.1,1.3-2.1c1.8-2.5.6-6.7-2.1-8.2a6.1,6.1,0,0,0-8.2,2.2,26.3,26.3,0,0,0-4,20.6,26.6,26.6,0,0,0,10.2,15.2c9.9,7.5,24.5,6.1,33.3-2.5a26.4,26.4,0,0,0,7.9-18.6,6,6,0,0,0-12,0Z" transform="translate(-137.3 -305.7)"/><path class="cls-2" d="M483.1,622.4c.1,12.4,9.2,23.7,21.6,25.6a25.9,25.9,0,0,0,18.2-3.6,26.5,26.5,0,0,0,11-14.3,25.8,25.8,0,0,0-3.4-22.4c-1.8-2.6-5.4-4-8.2-2.2s-4.1,5.5-2.2,8.2a17.4,17.4,0,0,1,1.1,1.8c.2.3,1,1.4.9,1.8s-.3-1-.1-.3l.3,1a7.9,7.9,0,0,1,.6,2.2c0,.1.1,1.4.1.4v.5a14.1,14.1,0,0,1,.1,2c-.1.5-.1,1.1-.2,1.6s.3-1.6.1-.4-.1.6-.2,1a9.8,9.8,0,0,1-.5,1.6c-.1.3-.7,1.8-.2.8s-.3.6-.4.8a9.5,9.5,0,0,1-1,1.7c-.2.3-1.2,1.6-.5.8s-.4.4-.6.6l-1.1,1.2-.6.5c-.5.4-1.4.7.1,0a21.3,21.3,0,0,0-2.5,1.6l-1.5.7c1.3-.7.9-.4.5-.2l-1.1.3-1.5.4-1,.2c-.4.1-.9,0,.6,0-1.2,0-2.3.2-3.5.1h-1c-.5,0-.7-.3.6.1l-1.7-.3-1.6-.5-.7-.2h.3a26.9,26.9,0,0,1-2.9-1.6l-.6-.4c-.9-.7.9.8.3.2a14.2,14.2,0,0,1-1.3-1.2,8.6,8.6,0,0,1-1.3-1.4c-.2-.1-.3-.3-.5-.5s.5.6.2.2a20.2,20.2,0,0,1-1.8-3.2c-.5-1.1.5,1.4.1.2l-.3-.9c-.2-.5-.3-1.1-.5-1.6a3,3,0,0,0-.2-1c-.2-1.1.2,1.4.1.2a14.8,14.8,0,0,1-.1-2.1c-.1-3.1-2.8-6.1-6-6s-6.1,2.7-6,6Z" transform="translate(-137.3 -305.7)"/><path class="cls-3" d="M349.3,331.3a144.2,144.2,0,0,1,18.7-3.9l-2.8.4a129.8,129.8,0,0,1,34.1,0l-2.7-.4a131.9,131.9,0,0,1,33.2,9.1l-2.5-1.1a134.4,134.4,0,0,1,29.3,17.1l-2.2-1.6a131.2,131.2,0,0,1,23.3,23.2L476,372a129.2,129.2,0,0,1,16.8,28.7l-1.1-2.5a128.8,128.8,0,0,1,5.4,15.1,10.6,10.6,0,0,0,4.8,6.2,10.4,10.4,0,0,0,8.1,1.1c5.3-1.7,8.9-7.3,7.3-12.9a139.8,139.8,0,0,0-18.2-39.4,136.6,136.6,0,0,0-28.2-31,158.5,158.5,0,0,0-18.1-12.6,151,151,0,0,0-19.9-9.5,141,141,0,0,0-41-9.2,136.9,136.9,0,0,0-43.2,3.8l-5,1.3a10.5,10.5,0,0,0-6.3,4.8,11,11,0,0,0-1.1,8.1c1.8,5.4,7.3,8.9,13,7.3Z" transform="translate(-137.3 -305.7)"/><path class="cls-3" d="M301.7,417.3a72.1,72.1,0,0,1-2.4-11.4l.3,2.8a83.6,83.6,0,0,1,0-21.2l-.3,2.8a79.3,79.3,0,0,1,5.5-20.3l-1.1,2.5a82.5,82.5,0,0,1,10.6-18.1l-1.7,2.2a82.9,82.9,0,0,1,14.5-14.5l-2.2,1.7a80.8,80.8,0,0,1,17.5-10.2l-2.5,1a74.6,74.6,0,0,1,9.4-3.3,10.6,10.6,0,0,0,6.2-4.8,10.9,10.9,0,0,0,1.1-8.1c-1.8-5.3-7.3-9-12.9-7.3a89.3,89.3,0,0,0-45.2,29.7,97.5,97.5,0,0,0-8.3,11.9,92.1,92.1,0,0,0-6.2,13.1,85,85,0,0,0-5.8,26.3,88.9,88.9,0,0,0,3.2,30.8,10.8,10.8,0,0,0,4.8,6.3,10.5,10.5,0,0,0,8.1,1c5.4-1.7,9-7.2,7.4-12.9Z" transform="translate(-137.3 -305.7)"/><path class="cls-3" d="M350.6,444.3a45,45,0,0,1-7.3,1.5l2.8-.3a56.5,56.5,0,0,1-13,0l2.8.3a53.4,53.4,0,0,1-12.9-3.4l2.6,1a52,52,0,0,1-11.2-6.5l2.1,1.6a50.6,50.6,0,0,1-9-8.9l1.6,2.1a52,52,0,0,1-6.5-11.2l1,2.5c-.7-1.9-1.4-3.8-1.9-5.7a11.8,11.8,0,0,0-4.9-6.3,10.8,10.8,0,0,0-8.1-1c-5.3,1.7-8.9,7.3-7.3,12.9A60.5,60.5,0,0,0,301.1,453a63.4,63.4,0,0,0,8.2,5.7,75.6,75.6,0,0,0,9.1,4.3,61.3,61.3,0,0,0,37.7,1.6,11.1,11.1,0,0,0,6.3-4.9,10.6,10.6,0,0,0,1.1-8c-1.8-5.4-7.3-9-12.9-7.4Z" transform="translate(-137.3 -305.7)"/><path class="cls-3" d="M363.8,420.1a31.5,31.5,0,0,1,.9,4.2l-.4-2.8a27.5,27.5,0,0,1,0,8.1l.4-2.7a32.9,32.9,0,0,1-2.1,7.6l1-2.5a30.7,30.7,0,0,1-3.8,6.6l1.6-2.1a27.6,27.6,0,0,1-5.4,5.4l2.2-1.6a30.7,30.7,0,0,1-6.8,3.9l2.5-1-3.3,1.1a10.5,10.5,0,0,0-7.4,12.9c1.7,5.4,7.3,9,12.9,7.4A40.4,40.4,0,0,0,376,451.7a48.7,48.7,0,0,0,4.1-5.7,51.1,51.1,0,0,0,2.9-6.3,39.5,39.5,0,0,0,2.5-11.7,37.8,37.8,0,0,0-1.4-13.4,10.6,10.6,0,0,0-12.9-7.4c-5.4,1.8-9,7.3-7.4,12.9Z" transform="translate(-137.3 -305.7)"/><path class="cls-3" d="M352,413.7l2.7-.5-2.8.3a24.4,24.4,0,0,1,5.4,0l-2.8-.4a22.7,22.7,0,0,1,5.1,1.4l-2.5-1.1a25.1,25.1,0,0,1,4.5,2.6l-2.1-1.6a21.6,21.6,0,0,1,3.7,3.7l-1.7-2.1a17.6,17.6,0,0,1,2.6,4.4l-1.1-2.6c.3.8.6,1.6.8,2.3a10.5,10.5,0,0,0,12.9,7.4c5.4-1.7,9-7.3,7.4-12.9a30.6,30.6,0,0,0-37.7-21.1,10.6,10.6,0,0,0-6.2,4.8A10.4,10.4,0,0,0,352,413.7Z" transform="translate(-137.3 -305.7)"/><path class="cls-3" d="M352.5,413.2l-.3-1.4.4,2.8a8.2,8.2,0,0,1-.1-2.7l-.3,2.8a7.8,7.8,0,0,1,.7-2.5l-1.1,2.5a10.5,10.5,0,0,1,1.3-2.3l-1.6,2.2a10.7,10.7,0,0,1,1.8-1.9l-2.1,1.7a7.1,7.1,0,0,1,2.2-1.3l-2.5,1,1.1-.4a10.8,10.8,0,0,0,6.3-4.8,6.9,6.9,0,0,0,1.2-3.9,7.5,7.5,0,0,0-.2-4.2,10.3,10.3,0,0,0-4.8-6.2,10.4,10.4,0,0,0-8.1-1.1,23.9,23.9,0,0,0-4.4,1.8,23.3,23.3,0,0,0-3.7,2.7,9.3,9.3,0,0,0-1.4,1.4,23.3,23.3,0,0,0-2.7,3.7,21,21,0,0,0-2,15.7,9.2,9.2,0,0,0,1.9,3.5,6.6,6.6,0,0,0,3,2.7,7.9,7.9,0,0,0,3.9,1.3,8.2,8.2,0,0,0,4.1-.2,10.5,10.5,0,0,0,6.3-4.8,11.4,11.4,0,0,0,1.1-8.1Z" transform="translate(-137.3 -305.7)"/><path class="cls-3" d="M517.9,413.6l3.8-5.2-1.7,2.2a135.2,135.2,0,0,1,23.3-23.3l-2.1,1.7a132.5,132.5,0,0,1,28.6-16.8l-2.5,1.1a136.2,136.2,0,0,1,33.6-9.2l-2.8.4a133.6,133.6,0,0,1,34.6,0l-2.8-.4a131.3,131.3,0,0,1,33,9l-2.5-1.1a133,133,0,0,1,24.2,13.4c2.1,1.5,5.6,1.7,8.1,1.1a10.8,10.8,0,0,0,6.2-4.9,10.4,10.4,0,0,0,1.1-8.1,11.8,11.8,0,0,0-4.8-6.2,143.1,143.1,0,0,0-39.1-19,140.5,140.5,0,0,0-82.9.5,138.9,138.9,0,0,0-37.7,18.4A159.6,159.6,0,0,0,518,381.4a165.5,165.5,0,0,0-15.1,17.3c-1.1,1.4-2.1,2.9-3.1,4.3a10.4,10.4,0,0,0-1.1,8.1,10.8,10.8,0,0,0,4.8,6.3,10.5,10.5,0,0,0,8.1,1,11.5,11.5,0,0,0,6.3-4.8Z" transform="translate(-137.3 -305.7)"/><path class="cls-3" d="M533.8,510.7l-3.2-2.4,2.2,1.7a79.1,79.1,0,0,1-14.4-14.5l1.6,2.2A82.6,82.6,0,0,1,509.7,480l1.1,2.5a80.9,80.9,0,0,1-5.6-20.5l.4,2.8a75.3,75.3,0,0,1,0-21.2l-.4,2.7a78,78,0,0,1,5.6-20.5l-1.1,2.5a81.2,81.2,0,0,1,8.2-14.7c1.5-2.1,1.7-5.7,1-8.1a10.4,10.4,0,0,0-4.8-6.3,10.9,10.9,0,0,0-8.1-1,11.8,11.8,0,0,0-6.2,4.8,90.4,90.4,0,0,0,0,102.4,94.6,94.6,0,0,0,23.4,23.4c2.1,1.5,5.7,1.7,8.1,1a10.4,10.4,0,0,0,7.3-12.9,11.8,11.8,0,0,0-4.8-6.2Z" transform="translate(-137.3 -305.7)"/><path class="cls-3" d="M589.1,502.1l-1.5,2,1.6-2.1a47.9,47.9,0,0,1-9,9l2.1-1.6a49.1,49.1,0,0,1-10.9,6.3l2.5-1a51.7,51.7,0,0,1-12.8,3.5l2.8-.4a51.6,51.6,0,0,1-13.6,0l2.8.4a52.2,52.2,0,0,1-12.7-3.5l2.6,1a45.5,45.5,0,0,1-9.2-5,10.4,10.4,0,0,0-8.1-1.1,11.2,11.2,0,0,0-6.3,4.8,10.5,10.5,0,0,0-1,8.1,12.1,12.1,0,0,0,4.8,6.3c19.9,13.8,48.2,13.9,68.1-.1a65.3,65.3,0,0,0,15.9-16c1.5-2.1,1.7-5.7,1.1-8.1a10.8,10.8,0,0,0-4.9-6.2,10.4,10.4,0,0,0-8.1-1.1,11.8,11.8,0,0,0-6.2,4.8Z" transform="translate(-137.3 -305.7)"/><path class="cls-3" d="M585.5,474.7l1.1.9-2.1-1.7a34.5,34.5,0,0,1,5.4,5.4l-1.7-2.2a30,30,0,0,1,3.9,6.7l-1.1-2.5a28.8,28.8,0,0,1,2.2,7.6l-.4-2.8a35.7,35.7,0,0,1,0,8l.4-2.8a34.6,34.6,0,0,1-2.1,7.8l1-2.5a26.5,26.5,0,0,1-3,5.5,10.5,10.5,0,0,0-1.1,8.1,11.2,11.2,0,0,0,4.8,6.3,10.5,10.5,0,0,0,8.1,1,11.1,11.1,0,0,0,6.3-4.8c9.1-13.1,9.2-32,0-45.1a46.4,46.4,0,0,0-11.1-11c-2.2-1.5-5.7-1.7-8.1-1.1a10.5,10.5,0,0,0-7.4,12.9,11.4,11.4,0,0,0,4.9,6.3Z" transform="translate(-137.3 -305.7)"/><path class="cls-3" d="M572,475.9l.6-.9-1.6,2.1a21.9,21.9,0,0,1,3.4-3.4l-2.2,1.7a24,24,0,0,1,4.6-2.7l-2.5,1a24.2,24.2,0,0,1,5.1-1.4l-2.8.4a23.5,23.5,0,0,1,5.3,0l-2.8-.4a23.5,23.5,0,0,1,5.2,1.4l-2.5-1a19,19,0,0,1,3.7,2c2.1,1.5,5.6,1.7,8,1.1a10.7,10.7,0,0,0,6.3-4.9,10.2,10.2,0,0,0,1.1-8,11.7,11.7,0,0,0-4.8-6.3,27.3,27.3,0,0,0-10.1-4.3,33.5,33.5,0,0,0-13-.1,26.4,26.4,0,0,0-9.7,3.9,32,32,0,0,0-9.5,9.2c-1.5,2.1-1.7,5.7-1,8.1a10.2,10.2,0,0,0,4.8,6.2,10.4,10.4,0,0,0,8.1,1.1,12.5,12.5,0,0,0,6.3-4.8Z" transform="translate(-137.3 -305.7)"/><path class="cls-3" d="M570.7,475.4l-.4-.2,2.2,1.6a6.9,6.9,0,0,1-1.9-1.9l1.6,2.2A11.3,11.3,0,0,1,571,475l1,2.5a13.4,13.4,0,0,1-.7-2.7l.4,2.8a11.3,11.3,0,0,1,0-2.6l-.4,2.8a12.5,12.5,0,0,1,.7-2.6l-1.1,2.5a17.4,17.4,0,0,1,1.1-1.8,7.8,7.8,0,0,0,1.2-3.9,7.5,7.5,0,0,0-.2-4.2,7,7,0,0,0-1.9-3.6,8.4,8.4,0,0,0-2.9-2.7,10.9,10.9,0,0,0-8.1-1.1l-2.5,1.1a10.6,10.6,0,0,0-3.8,3.8,16.2,16.2,0,0,0-1,1.8,21.3,21.3,0,0,0-2.2,9,35.6,35.6,0,0,0,.5,4.7,6.6,6.6,0,0,0,.6,2,22.6,22.6,0,0,0,1.9,4.2,24,24,0,0,0,6.5,6.6,8.9,8.9,0,0,0,3.9,1.2,7.5,7.5,0,0,0,4.2-.2,7.1,7.1,0,0,0,3.5-1.9,6.9,6.9,0,0,0,2.7-2.9,10.4,10.4,0,0,0,1.1-8.1l-1.1-2.5a11.2,11.2,0,0,0-3.7-3.8Z" transform="translate(-137.3 -305.7)"/><path class="cls-3" d="M158.8,543a132.2,132.2,0,0,1,9-32.7l-1.1,2.5a134.6,134.6,0,0,1,16.8-28.9l-1.6,2.1a133.5,133.5,0,0,1,23.4-23.5l-2.1,1.7a128.2,128.2,0,0,1,28.6-16.7l-2.5,1a130.3,130.3,0,0,1,32.5-8.8l-2.8.4a128.6,128.6,0,0,1,34.5-.1l-2.8-.3h1.1a7.2,7.2,0,0,0,4.1.2,9.7,9.7,0,0,0,4-1.2,11.2,11.2,0,0,0,4.8-6.3,10.4,10.4,0,0,0-1.1-8.1c-1.4-2.1-3.6-4.5-6.3-4.8a150,150,0,0,0-23.2-1.7,143.1,143.1,0,0,0-22.6,2.3A134.9,134.9,0,0,0,212,433.7a137.8,137.8,0,0,0-33.4,24.4,140.6,140.6,0,0,0-39.2,74.1c-.4,1.7-.6,3.5-.9,5.2a8.6,8.6,0,0,0-.2,4.2,7.9,7.9,0,0,0,1.3,3.9,10,10,0,0,0,6.2,4.8,10.4,10.4,0,0,0,8.1-1c2.2-1.4,4.5-3.7,4.9-6.3Z" transform="translate(-137.3 -305.7)"/><path class="cls-3" d="M219.4,620.5a81.3,81.3,0,0,1-20-5.5l2.5,1a79.6,79.6,0,0,1-17.6-10.3l2.1,1.6a82.3,82.3,0,0,1-14.5-14.4l1.7,2.1a79.2,79.2,0,0,1-10.5-18l1.1,2.5a79.3,79.3,0,0,1-5.5-20.3l.3,2.8a82.8,82.8,0,0,1,0-21.1l-.3,2.8a1.7,1.7,0,0,1,.1-.7,7.5,7.5,0,0,0,.1-4.2,6.9,6.9,0,0,0-1.2-3.9,10.7,10.7,0,0,0-14.4-3.8c-2.1,1.4-4.4,3.7-4.8,6.3a112.8,112.8,0,0,0-1.2,15.4,94.3,94.3,0,0,0,1.6,15,87.8,87.8,0,0,0,8.7,25.4,90.3,90.3,0,0,0,37,37.7,89.1,89.1,0,0,0,29.3,9.9,7.2,7.2,0,0,0,4.1.1,6.9,6.9,0,0,0,3.9-1.2,11,11,0,0,0,4.9-6.3,10.4,10.4,0,0,0-1.1-8.1c-1.4-2.1-3.6-4.4-6.3-4.8Z" transform="translate(-137.3 -305.7)"/><path class="cls-3" d="M263,585.3a48.5,48.5,0,0,1-3.4,12.4l1.1-2.5a48.5,48.5,0,0,1-6.6,11.2l1.7-2.1a56,56,0,0,1-9.1,9.1l2.1-1.7a51.3,51.3,0,0,1-11.1,6.5l2.5-1.1a49.3,49.3,0,0,1-12.5,3.4l2.7-.3a50.1,50.1,0,0,1-13.4,0l2.8.3h-.4a8.2,8.2,0,0,0-4.1-.2,8.6,8.6,0,0,0-4,1.3,10.7,10.7,0,0,0-4.8,6.2,10.4,10.4,0,0,0,1.1,8.1c1.3,2.1,3.6,4.5,6.3,4.9a77.3,77.3,0,0,0,10.8.8,70.7,70.7,0,0,0,10.2-1.1,59.6,59.6,0,0,0,41.7-30.2,58.1,58.1,0,0,0,6.7-19.4,8.6,8.6,0,0,0,.2-4.2,7.9,7.9,0,0,0-1.3-3.9,10.8,10.8,0,0,0-6.3-4.8c-2.6-.6-5.7-.5-8,1.1s-4.5,3.6-4.9,6.2Z" transform="translate(-137.3 -305.7)"/><path class="cls-3" d="M244.9,564.3a37.6,37.6,0,0,1,7.3,2l-2.5-1a29.6,29.6,0,0,1,6.9,4l-2.1-1.6a29.5,29.5,0,0,1,5.3,5.3l-1.6-2.1a32.5,32.5,0,0,1,3.8,6.5l-1.1-2.5a30.6,30.6,0,0,1,2.2,7.7l-.4-2.8a35.7,35.7,0,0,1,0,8l.4-2.8v.3a8.6,8.6,0,0,0-.2,4.2,7.9,7.9,0,0,0,1.3,3.9,10.7,10.7,0,0,0,14.4,3.8c2.1-1.4,4.4-3.7,4.8-6.3a58.2,58.2,0,0,0,.7-7.3,59.8,59.8,0,0,0-.8-7.4,41.4,41.4,0,0,0-3.9-11.2,40.6,40.6,0,0,0-16.1-16.5,38.9,38.9,0,0,0-12.8-4.4,8.2,8.2,0,0,0-4.1-.2,9.7,9.7,0,0,0-4,1.2,11.2,11.2,0,0,0-4.8,6.3,10.4,10.4,0,0,0,1.1,8.1c1.4,2.1,3.6,4.5,6.3,4.8Z" transform="translate(-137.3 -305.7)"/><path class="cls-3" d="M235.2,574a17.5,17.5,0,0,1,1.4-5.1l-1.1,2.5a22.2,22.2,0,0,1,2.5-4.2l-1.7,2.1a27.3,27.3,0,0,1,3.8-3.8l-2.1,1.7a24.3,24.3,0,0,1,4.4-2.6l-2.5,1.1a21.1,21.1,0,0,1,4.9-1.4l-2.8.4a26.2,26.2,0,0,1,5.6,0c2.5.3,5.8-1.4,7.5-3.1a10.3,10.3,0,0,0,3-7.4,10.7,10.7,0,0,0-3-7.4l-2.2-1.7a10.8,10.8,0,0,0-5.3-1.4,28.8,28.8,0,0,0-20.2,5.4,32.2,32.2,0,0,0-8.7,9.3,25.9,25.9,0,0,0-3.8,10,8.6,8.6,0,0,0-.2,4.2,7.9,7.9,0,0,0,1.3,3.9,10.4,10.4,0,0,0,6.3,4.8,10.2,10.2,0,0,0,8-1c2.2-1.4,4.5-3.7,4.9-6.3Z" transform="translate(-137.3 -305.7)"/><path class="cls-3" d="M236.3,572.4a11.7,11.7,0,0,1-2.5-.7l2.5,1a7.2,7.2,0,0,1-2.1-1.2l2.1,1.7a17,17,0,0,1-1.9-1.9l1.7,2.1a9.8,9.8,0,0,1-1.3-2.2l1.1,2.5a7.2,7.2,0,0,1-.7-2.5l.3,2.8a13.1,13.1,0,0,1,0-2.8,7,7,0,0,0-.9-4,7.5,7.5,0,0,0-2.1-3.4,8.3,8.3,0,0,0-3.4-2.2,9.5,9.5,0,0,0-4.1-.9l-2.7.4a10.6,10.6,0,0,0-4.7,2.7l-1.6,2.1a11.2,11.2,0,0,0-1.5,5.3,8.1,8.1,0,0,0,0,2.2,24.4,24.4,0,0,0,.7,4.6,22.6,22.6,0,0,0,1.7,4.3l1,1.7a30.7,30.7,0,0,0,2.9,3.4,20,20,0,0,0,3.7,2.8,21.7,21.7,0,0,0,4.1,1.9,7.9,7.9,0,0,0,2.2.5,7.2,7.2,0,0,0,4.1.2,6.9,6.9,0,0,0,3.9-1.2,7.9,7.9,0,0,0,3-2.7,8.9,8.9,0,0,0,1.9-3.6l.3-2.8a10,10,0,0,0-1.4-5.3l-1.6-2.1a10.6,10.6,0,0,0-4.7-2.7Z" transform="translate(-137.3 -305.7)"/><path class="cls-3" d="M271.6,697.7a76.9,76.9,0,0,1-10.7-.7l2.8.4a85.3,85.3,0,0,1-20.5-5.6l2.5,1a81.9,81.9,0,0,1-17.6-10.3l2.2,1.7a80.7,80.7,0,0,1-14.6-14.6l1.6,2.1A83.7,83.7,0,0,1,207,654.1l1.1,2.5a80.2,80.2,0,0,1-5.6-20.4l.4,2.8a87.1,87.1,0,0,1-.6-16.1,10.5,10.5,0,0,0-17.9-7.5,11.7,11.7,0,0,0-3.1,7.5,90.8,90.8,0,0,0,14.8,55.2,88.4,88.4,0,0,0,18.4,20.2,104.3,104.3,0,0,0,12.3,8.6,103.6,103.6,0,0,0,13.6,6.2,87.8,87.8,0,0,0,31.2,5.6,11,11,0,0,0,7.5-3.1,10.3,10.3,0,0,0,3-7.4,10.6,10.6,0,0,0-10.5-10.5Z" transform="translate(-137.3 -305.7)"/><path class="cls-3" d="M271.6,718.7h537c5.5,0,10.8-4.8,10.5-10.5a10.6,10.6,0,0,0-10.5-10.5H293.4c-6.9,0-13.9-.1-20.8,0h-1c-5.4,0-10.7,4.8-10.5,10.5s4.7,10.5,10.5,10.5Z" transform="translate(-137.3 -305.7)"/><path class="cls-3" d="M809.6,718.7a89.7,89.7,0,0,0,51.8-16.3,97.7,97.7,0,0,0,11.2-9.2,90.5,90.5,0,0,0,9.5-10.9,89.6,89.6,0,0,0,14.7-78.6A90.2,90.2,0,0,0,867.9,559a108.3,108.3,0,0,0-11.7-8.4,80.4,80.4,0,0,0-13.2-6.4,86.9,86.9,0,0,0-27.1-6.2q-3.1-.3-6.3-.3a11,11,0,0,0-7.4,3.1,10.8,10.8,0,0,0-3.1,7.4c.3,5.7,4.7,10.5,10.5,10.5a97.9,97.9,0,0,1,10.8.7l-2.8-.3a77,77,0,0,1,20.5,5.6l-2.5-1.1a84.4,84.4,0,0,1,17.6,10.3l-2.2-1.6a80.2,80.2,0,0,1,14.6,14.5l-1.6-2.1a83.7,83.7,0,0,1,10.3,17.6l-1.1-2.5a80.2,80.2,0,0,1,5.6,20.4l-.4-2.8a78.1,78.1,0,0,1,0,21.6l.4-2.8a80.2,80.2,0,0,1-5.6,20.4l1.1-2.5A83.7,83.7,0,0,1,864,671.7l1.6-2.1A80.7,80.7,0,0,1,851,684.2l2.2-1.7a84.4,84.4,0,0,1-17.6,10.3l2.5-1a85.3,85.3,0,0,1-20.5,5.6l2.8-.4a78.3,78.3,0,0,1-10.8.7,10.6,10.6,0,0,0-10.5,10.5c.3,5.7,4.7,10.5,10.5,10.5Z" transform="translate(-137.3 -305.7)"/><path class="cls-3" d="M809.6,558.7c2.2,0,4.4.2,6.6.4l-2.8-.3a53.2,53.2,0,0,1,13,3.5l-2.5-1.1a53.1,53.1,0,0,1,11,6.5l-2.1-1.6a51.1,51.1,0,0,1,9,9l-1.7-2.2a47.5,47.5,0,0,1,6.5,11.1l-1-2.5a52.4,52.4,0,0,1,3.5,12.9l-.4-2.8a48.6,48.6,0,0,1,0,13.2l.4-2.8a53.2,53.2,0,0,1-3.5,13l1-2.5a49,49,0,0,1-6.5,11l1.7-2.1a58.9,58.9,0,0,1-9,9l2.1-1.7a53.1,53.1,0,0,1-11,6.5l2.5-1.1a49.3,49.3,0,0,1-13,3.6l2.8-.4a48.7,48.7,0,0,1-6.6.4,10.6,10.6,0,0,0-10.5,10.5c.3,5.7,4.7,10.5,10.5,10.5A59.1,59.1,0,0,0,843.9,648a71.1,71.1,0,0,0,7.9-6.4,65.9,65.9,0,0,0,6.5-7.5,62.5,62.5,0,0,0,8.4-15.7c8.4-22.9,1-50.6-17.8-66.2a63.9,63.9,0,0,0-19.1-11,58,58,0,0,0-20.2-3.5,11,11,0,0,0-7.4,3.1,10.8,10.8,0,0,0-3.1,7.4c.3,5.7,4.7,10.5,10.5,10.5Z" transform="translate(-137.3 -305.7)"/><path class="cls-3" d="M809.6,637.7a75.9,75.9,0,0,1-10.7-.7l2.8.4a85.3,85.3,0,0,1-20.5-5.6l2.5,1a79.6,79.6,0,0,1-17.6-10.3l2.1,1.7a83.5,83.5,0,0,1-14.5-14.6l1.6,2.1A83.7,83.7,0,0,1,745,594.1l1.1,2.5a76.3,76.3,0,0,1-5.6-20.4l.4,2.8a78.1,78.1,0,0,1,0-21.6l-.4,2.8c.4-3.3,1.2-6.6,1.8-9.9a48.6,48.6,0,0,1,1.5-6.6l-1.1,2.5V546a8.6,8.6,0,0,0,1.3-4,8.2,8.2,0,0,0-.2-4.1,10.5,10.5,0,0,0-12.9-7.4c-2.4.8-5.3,2.4-6.3,4.9a24.7,24.7,0,0,0-1.9,5.6,23,23,0,0,1-.6,2.8c-.6,3-1.2,6-1.7,9a89.5,89.5,0,0,0,7.5,54.4,89.1,89.1,0,0,0,43.9,43.2,96.7,96.7,0,0,0,18.1,6.2,99.6,99.6,0,0,0,19.6,2.1,11,11,0,0,0,7.5-3.1,10.3,10.3,0,0,0,3-7.4,10.6,10.6,0,0,0-10.5-10.5Z" transform="translate(-137.3 -305.7)"/><path class="cls-3" d="M684.6,385.4c2.1,1.4,4.2,2.9,6.2,4.5l-2.1-1.7a138.7,138.7,0,0,1,23.6,23.6l-1.7-2.2a125.7,125.7,0,0,1,16.9,29l-1-2.5a130.2,130.2,0,0,1,9,33l-.4-2.8a131.6,131.6,0,0,1,.1,34.9l.3-2.8a131.7,131.7,0,0,1-9,33.2l1-2.5a130.5,130.5,0,0,1-16.7,28.7l1.6-2.1a137.8,137.8,0,0,1-16,17.3c-4.1,3.7-4.1,11.2,0,14.9a10.7,10.7,0,0,0,14.8,0,141.1,141.1,0,0,0,29.9-38.4,149.3,149.3,0,0,0,10-24.1,153.7,153.7,0,0,0,5.3-26,139.3,139.3,0,0,0-22.7-93.5,158.9,158.9,0,0,0-15.4-19.3,151,151,0,0,0-18.6-16.2l-4.5-3.2a10.5,10.5,0,0,0-8.1-1,10.2,10.2,0,0,0-6.3,4.8,10.9,10.9,0,0,0-1.1,8.1,12.1,12.1,0,0,0,4.9,6.3Z" transform="translate(-137.3 -305.7)"/><line class="cls-4" x1="215" y1="248.9" x2="301.5" y2="248.9"/><line class="cls-4" x1="401.8" y1="248.9" x2="488.3" y2="248.9"/><path class="cls-5" d="M528.2,381.7" transform="translate(-137.3 -305.7)"/><path class="cls-6" d="M0,0" transform="translate(-137.3 -305.7)"/><path class="cls-6" d="M1024,1024" transform="translate(-137.3 -305.7)"/></svg>